<svg width="154" height="313" viewBox="0 0 154 313" fill="none" xmlns="http://www.w3.org/2000/svg">
<path opacity="0.8" fill-rule="evenodd" clip-rule="evenodd" d="M-140.647 227.642C-146.579 216.173 -151.13 203.873 -154.08 190.963L112.036 49.4669C120.93 58.9747 128.649 69.5962 134.96 81.0994L-140.647 227.642ZM-127.849 248.272C-121.357 257.121 -113.954 265.26 -105.779 272.551L152.713 135.109C151.233 124.075 148.599 113.406 144.939 103.228L-127.849 248.272ZM-50.7774 304.314C-62.6663 300.401 -73.9239 295.097 -84.358 288.596L154 161.859C153.537 174.508 151.569 186.772 148.27 198.479L-50.7774 304.314ZM-13.0978 311.714C-9.41467 311.974 -5.69627 312.106 -1.94701 312.106C55.9152 312.106 106.422 280.614 133.37 233.836L-13.0978 311.714ZM57.3782 11.672C70.1846 16.9398 82.136 23.8618 92.9663 32.1721L-157.721 165.465C-157.906 162.351 -158 159.213 -158 156.053C-158 145.241 -156.9 134.686 -154.807 124.493L57.3782 11.672ZM23.7677 2.1086C15.4022 0.721604 6.81186 0 -1.94701 0C-65.0314 0 -119.373 37.4324 -143.972 91.2975L23.7677 2.1086Z" fill="#91C53D"/>
</svg>
